<svg width="25" height="24" viewBox="0 0 25 24" fill="none" xmlns="http://www.w3.org/2000/svg">
<g clip-path="url(#clip0_233_7941)">
<path fill-rule="evenodd" clip-rule="evenodd" d="M8.54047 5.54429L4.7974 7.15005V16.6741L8.54047 18.2798V5.54429ZM8.69224 4.06744C9.23447 3.83482 9.83787 4.23254 9.83787 4.82257V19.0015C9.83787 19.5916 9.23447 19.9893 8.69224 19.7567L3.99774 17.7428C3.69576 17.6132 3.5 17.3162 3.5 16.9876V6.83648C3.5 6.50789 3.69576 6.2109 3.99774 6.08135L8.69224 4.06744ZM10.4195 5.85753C10.4195 5.49926 10.7099 5.20883 11.0682 5.20883H15.2198C15.6736 5.20883 16.0415 5.57671 16.0415 6.03051V8.01986C16.0415 8.37813 15.7511 8.66856 15.3928 8.66856C15.0346 8.66856 14.7441 8.37813 14.7441 8.01986V6.50623H11.0682C10.7099 6.50623 10.4195 6.2158 10.4195 5.85753ZM15.3928 15.1556C15.7511 15.1556 16.0415 15.446 16.0415 15.8043V17.7936C16.0415 18.2474 15.6736 18.6153 15.2198 18.6153H11.0682C10.7099 18.6153 10.4195 18.3249 10.4195 17.9666C10.4195 17.6083 10.7099 17.3179 11.0682 17.3179H14.7441V15.8043C14.7441 15.446 15.0346 15.1556 15.3928 15.1556Z" fill="#878A99"/>
<path fill-rule="evenodd" clip-rule="evenodd" d="M12.1494 11.4796C12.1494 11.1213 12.4398 10.8309 12.7981 10.8309L19.7176 10.8309C20.0758 10.8309 20.3663 11.1213 20.3663 11.4796C20.3663 11.8379 20.0758 12.1283 19.7176 12.1283L12.7981 12.1283C12.4398 12.1283 12.1494 11.8379 12.1494 11.4796Z" fill="#878A99"/>
<path fill-rule="evenodd" clip-rule="evenodd" d="M17.5198 8.43536C17.768 8.17701 18.1787 8.1688 18.437 8.41701L21.4999 11.3598L18.455 14.5242C18.2066 14.7823 17.7959 14.7902 17.5378 14.5418C17.2796 14.2934 17.2717 13.8828 17.5201 13.6246L19.6648 11.3958L17.5381 9.35257C17.2798 9.10436 17.2716 8.69371 17.5198 8.43536Z" fill="#878A99"/>
</g>
<defs>
<clipPath id="clip0_233_7941">
<rect width="24" height="24" fill="white" transform="translate(0.5)"/>
</clipPath>
</defs>
</svg>
