<svg width="45" height="38" viewBox="0 0 45 38" fill="none" xmlns="http://www.w3.org/2000/svg">
<rect x="0.5" width="44" height="38" rx="8" fill="#7539FF"/>
<path d="M24.7085 23.5833H30.2085" stroke="white" stroke-width="1.5" stroke-linecap="round" stroke-linejoin="round"/>
<path d="M27.9167 25.875L30.2084 23.5833L27.9169 21.2917" stroke="white" stroke-width="1.5" stroke-linecap="round" stroke-linejoin="round"/>
<path d="M30.2082 19.9167V12.5833C30.2082 11.8239 29.5926 11.2083 28.8332 11.2083H14.1665C13.4071 11.2083 12.7915 11.8239 12.7915 12.5833V25.4167C12.7915 26.1761 13.4071 26.7917 14.1665 26.7917H23.5489" stroke="white" stroke-width="1.5" stroke-linecap="round" stroke-linejoin="round"/>
<path d="M17.5 20.6667H18.7C18.7 21.2667 19.522 21.7778 20.5 21.7778C21.478 21.7778 22.3 21.2667 22.3 20.6667C22.3 20.0556 21.676 19.8333 20.356 19.5389C19.084 19.2444 17.5 18.8778 17.5 17.3333C17.5 16.3389 18.382 15.4944 19.6 15.2111V14H21.4V15.2111C22.618 15.4944 23.5 16.3389 23.5 17.3333H22.3C22.3 16.7333 21.478 16.2222 20.5 16.2222C19.522 16.2222 18.7 16.7333 18.7 17.3333C18.7 17.9444 19.324 18.1667 20.644 18.4611C21.916 18.7556 23.5 19.1222 23.5 20.6667C23.5 21.6611 22.618 22.5056 21.4 22.7889V24H19.6V22.7889C18.382 22.5056 17.5 21.6611 17.5 20.6667Z" fill="white"/>
</svg>
