<svg width="23" height="22" viewBox="0 0 23 22" fill="none" xmlns="http://www.w3.org/2000/svg">
<path d="M14.7085 15.5833H20.2085" stroke="white" stroke-width="1.5" stroke-linecap="round" stroke-linejoin="round"/>
<path d="M17.9167 17.875L20.2084 15.5833L17.9169 13.2917" stroke="white" stroke-width="1.5" stroke-linecap="round" stroke-linejoin="round"/>
<path d="M20.2082 11.9167V4.58334C20.2082 3.82395 19.5926 3.20834 18.8332 3.20834H4.1665C3.40711 3.20834 2.7915 3.82395 2.7915 4.58334V17.4167C2.7915 18.1761 3.40711 18.7917 4.1665 18.7917H13.5489" stroke="white" stroke-width="1.5" stroke-linecap="round" stroke-linejoin="round"/>
<path d="M7.5 12.6667H8.7C8.7 13.2667 9.522 13.7778 10.5 13.7778C11.478 13.7778 12.3 13.2667 12.3 12.6667C12.3 12.0556 11.676 11.8333 10.356 11.5389C9.084 11.2444 7.5 10.8778 7.5 9.33333C7.5 8.33889 8.382 7.49444 9.6 7.21111V6H11.4V7.21111C12.618 7.49444 13.5 8.33889 13.5 9.33333H12.3C12.3 8.73333 11.478 8.22222 10.5 8.22222C9.522 8.22222 8.7 8.73333 8.7 9.33333C8.7 9.94444 9.324 10.1667 10.644 10.4611C11.916 10.7556 13.5 11.1222 13.5 12.6667C13.5 13.6611 12.618 14.5056 11.4 14.7889V16H9.6V14.7889C8.382 14.5056 7.5 13.6611 7.5 12.6667Z" fill="white"/>
</svg>
