<svg width="149" height="362" viewBox="0 0 149 362" fill="none" xmlns="http://www.w3.org/2000/svg">
<path d="M95.8043 64.8977C99.3617 68.7661 102.761 72.7732 106.117 76.8178C109.477 80.8583 112.755 84.971 115.991 89.1197C116.133 89.3001 116.076 89.2266 116.109 89.2807C116.125 89.3043 116.127 89.3431 116.147 89.3626C116.183 89.4028 116.202 89.4695 116.245 89.5056C116.309 89.6083 116.402 89.6818 116.495 89.779C116.692 89.9553 116.962 90.0899 117.261 90.1454C117.41 90.1676 117.567 90.1898 117.726 90.1732C117.812 90.1843 117.889 90.1579 117.979 90.1551C118.026 90.1565 118.061 90.1315 118.107 90.126C118.177 90.0954 118.133 90.1579 118.325 90.0441L121.802 88.1592C126.465 85.6899 131.166 83.2762 136.029 81.1095L140.093 86.1424C136.176 89.7471 132.096 94.2553 127.98 97.5587L124.87 100.003C124.791 100.075 124.457 100.294 124.247 100.435C124.007 100.589 123.773 100.755 123.518 100.891C123.015 101.169 122.507 101.447 121.967 101.66C120.901 102.121 119.763 102.414 118.609 102.592C116.295 102.936 113.891 102.703 111.647 101.899C110.528 101.496 109.444 100.959 108.457 100.274C107.952 99.9461 107.49 99.5616 107.029 99.1744C106.797 98.9814 106.59 98.7663 106.374 98.5567L105.821 97.9973C102.149 94.2303 98.5165 90.4272 94.966 86.5519C91.4127 82.6794 87.901 78.7722 84.5476 74.7247L95.8043 64.8977Z" fill="#B55B52"/>
<path d="M134.138 84.1743L137.374 73.7823L145.89 78.0269C145.89 78.0269 144.649 85.6095 138.449 86.9239L134.138 84.1743Z" fill="#B55B52"/>
<path d="M140.791 70.8994L148.472 73.0147L145.892 78.0254L137.375 73.7809L140.791 70.8994Z" fill="#B55B52"/>
<path d="M51.0024 67.7292C50.0753 72.1444 48.9427 76.5097 47.7559 80.8625C46.5747 85.2166 45.2853 89.5444 43.9445 93.8597L43.4448 95.4781L43.1949 96.2873C43.1422 96.4636 43.1075 96.508 43.0603 96.626C42.9076 97.0354 42.816 97.4796 42.798 97.946C42.7744 98.8704 42.9937 99.8989 43.5988 100.793C43.6488 100.937 44.1277 101.44 44.5011 101.845L45.6531 103.097L47.9252 105.641C49.4215 107.358 50.9122 109.08 52.328 110.892L47.4908 116.491C45.4935 115.354 43.5725 114.129 41.6557 112.898L38.8089 111.02L37.4014 110.06C36.9226 109.727 36.5381 109.504 35.7719 108.87C33.1319 106.631 31.1596 103.452 30.4364 99.9225C30.0672 98.1611 29.977 96.3248 30.1824 94.5065C30.2366 94.0707 30.3185 93.5627 30.3851 93.1893L30.5322 92.3551L30.8265 90.6867C31.6051 86.2354 32.4352 81.7966 33.3721 77.3827C34.3048 72.9689 35.2917 68.5676 36.4826 64.2162L51.0024 67.7292Z" fill="#B55B52"/>
<path d="M47.5755 110.496L53.3024 107.568L55.8285 117.302C55.8285 117.302 51.2329 119.063 47.6754 116.801L47.5755 110.496Z" fill="#B55B52"/>
<path d="M61.2153 104.454L61.4749 113.383L55.0804 117.565L52.8624 107.756L61.2153 104.454Z" fill="#B55B52"/>
<path d="M79.9395 21.835C80.0796 22.5234 80.5571 23.0064 81.0068 22.9148C81.4565 22.8232 81.7078 22.1917 81.5676 21.5032C81.4274 20.8148 80.9499 20.3318 80.5002 20.4234C80.0519 20.515 79.8007 21.1465 79.9395 21.835Z" fill="#263238"/>
<path d="M80.4947 23.0189C80.4947 23.0189 82.8654 26.6693 84.9765 28.2336C83.9896 29.6175 81.8161 29.5189 81.8161 29.5189L80.4947 23.0189Z" fill="#A02724"/>
<path d="M76.6444 18.526C76.5444 18.526 76.4431 18.4899 76.364 18.4163C76.1974 18.2623 76.1863 18.0013 76.3418 17.8334C77.8894 16.1581 79.7674 16.4565 79.8493 16.469C80.0741 16.5078 80.224 16.7202 80.1865 16.9451C80.1477 17.1685 79.9325 17.3184 79.7132 17.2823C79.6508 17.2726 78.1823 17.0575 76.9483 18.3928C76.8665 18.4816 76.7554 18.526 76.6444 18.526Z" fill="#263238"/>
<path d="M59.9231 31.5107C61.4541 37.8775 62.9823 49.5436 57.5177 53.7909C57.5177 53.7909 59.6525 60.2493 74.1668 60.2493C90.126 60.2493 81.7938 56.0894 81.7938 56.0894C73.0841 54.3947 73.3076 46.8287 74.8247 41.8819L59.9231 31.5107Z" fill="#B55B52"/>
<path d="M55.8174 54.9721C54.8666 53.2024 53.8187 51.1787 55.9854 50.5444C58.3686 49.8462 73.6796 48.5526 78.1767 49.8629C76.7943 52.321 79.1344 55.3427 79.1344 55.3427L55.8174 54.9721Z" fill="#263238"/>
<path d="M68.494 352.804H78.5084L79.505 332.648H69.492L68.494 352.804Z" fill="#B55B52"/>
<path d="M4.94722 350.028L15.0893 350.563L21.2534 330.708L11.1099 330.171L4.94722 350.028Z" fill="#B55B52"/>
<path d="M14.7798 349.761L5.22342 347.692C4.87642 347.617 4.52248 347.793 4.37396 348.116L1.05664 355.313C0.712418 356.06 1.16769 356.936 1.97411 357.095C5.32197 357.76 6.98617 357.916 11.1876 358.825C13.7735 359.384 19.6087 360.807 23.18 361.58C26.6722 362.336 27.9811 358.923 26.5889 358.288C20.3457 355.435 17.7376 352.923 16.047 350.583C15.7431 350.162 15.2892 349.872 14.7798 349.761Z" fill="#263238"/>
<path d="M77.9782 351.796H68.4746C68.1193 351.796 67.8111 352.043 67.7334 352.39L66.0137 360.125C65.836 360.928 66.444 361.687 67.2657 361.673C70.694 361.615 75.6478 361.413 79.9575 361.413C84.996 361.413 89.3473 361.688 95.2561 361.688C98.8288 361.688 99.8198 358.077 98.3249 357.749C91.5168 356.26 85.9578 356.1 80.0741 352.473C79.4356 352.079 78.7291 351.796 77.9782 351.796Z" fill="#263238"/>
<path d="M39.3863 56.7334C31.8286 60.327 29.7744 82.1116 29.7744 82.1116L48.4707 90.7505C48.4707 90.7505 53.1108 83.9146 53.4661 73.166C53.8381 61.9051 47.1133 53.0594 39.3863 56.7334Z" fill="#263238"/>
<path opacity="0.4" d="M49.5284 70.1678C46.1528 75.4075 46.472 83.5149 47.6407 90.366L48.4666 90.7533C48.4666 90.7533 53.1122 83.9091 53.4689 73.1632C53.4897 72.4914 53.487 71.8237 53.4634 71.1742L49.5284 70.1678Z" fill="black"/>
<path d="M91.5584 56.2074C91.5584 56.2074 100.822 66.6702 92.0734 131.43C78.0476 131.43 52.3488 131.43 45.524 131.43C45.2034 124.285 49.6936 89.4278 42.8008 55.7591C42.8008 55.7591 50.7804 54.1574 58.3838 53.7909C64.3314 53.505 72.9426 53.3148 78.1712 53.7909C85.0654 54.4211 91.5584 56.2074 91.5584 56.2074Z" fill="#407BFF"/>
<path opacity="0.6" d="M91.5584 56.2074C91.5584 56.2074 100.822 66.6702 92.0734 131.43C78.0476 131.43 52.3488 131.43 45.524 131.43C45.2034 124.285 49.6936 89.4278 42.8008 55.7591C42.8008 55.7591 50.7804 54.1574 58.3838 53.7909C64.3314 53.505 72.9426 53.3148 78.1712 53.7909C85.0654 54.4211 91.5584 56.2074 91.5584 56.2074Z" fill="#7539FF" fill-opacity="0.4"/>
<path opacity="0.2" d="M95.6266 76.0002L95.449 75.8461L86.191 70.8993C85.2499 85.1541 91.6222 94.09 95.4129 97.9986C95.9348 88.8656 95.9223 81.6618 95.6266 76.0002Z" fill="black"/>
<path opacity="0.2" d="M79.5036 332.654L78.9915 343.043H68.9729L69.485 332.654H79.5036Z" fill="black"/>
<path opacity="0.2" d="M11.1072 330.176L21.2534 330.714L18.0707 340.947L7.92447 340.411L11.1072 330.176Z" fill="black"/>
<path d="M56.7002 25.0398C58.9363 33.383 59.8204 38.3799 64.9699 41.8485C72.7135 47.066 82.356 41.0781 82.6572 32.2352C82.9292 24.2764 79.226 11.9704 70.2734 10.2881C61.4527 8.63222 54.4641 16.6965 56.7002 25.0398Z" fill="#B55B52"/>
<path d="M75.5603 131.43C75.5603 131.43 65.6833 197.939 60.2618 222.856C54.3239 250.142 22.486 340.417 22.486 340.417L6.90706 337.044C6.90706 337.044 26.872 263.476 31.855 225.33C33.7996 210.443 36.1467 186.448 39.117 166.441C41.9929 147.066 45.524 131.43 45.524 131.43H75.5603Z" fill="#263238"/>
<path d="M26.2155 335.215C26.2822 335.229 23.3118 340.849 23.3118 340.849L5.78418 337.054L7.2624 331.785L26.2155 335.215Z" fill="#407BFF"/>
<path opacity="0.6" d="M26.2155 335.215C26.2822 335.229 23.3118 340.849 23.3118 340.849L5.78418 337.054L7.2624 331.785L26.2155 335.215Z" fill="white"/>
<path opacity="0.6" d="M69.3185 155.126C57.898 157.365 59.107 199.953 60.4811 221.858C63.7748 206.375 68.5953 176.58 71.8891 155.434C71.1312 155.055 70.2776 154.937 69.3185 155.126Z" fill="black"/>
<path d="M92.0734 131.43C92.0734 131.43 96.719 196.499 95.7724 223.039C94.7883 250.644 81.6995 341.032 81.6995 341.032H66.9561C66.9561 341.032 66.4148 252.257 65.7597 225.146C65.0448 195.59 61.4763 131.43 61.4763 131.43H92.0734Z" fill="#263238"/>
<path d="M84.5352 335.159C84.6032 335.159 83.7037 341.28 83.7037 341.28H65.7694L65.285 335.817L84.5352 335.159Z" fill="#407BFF"/>
<path opacity="0.6" d="M84.5352 335.159C84.6032 335.159 83.7037 341.28 83.7037 341.28H65.7694L65.285 335.817L84.5352 335.159Z" fill="white"/>
<path d="M86.1258 68.3967C86.1258 85.8592 95.4184 93.049 95.4184 93.049L110.523 78.2835C110.523 78.2835 105.387 69.435 98.3249 61.3124C89.5986 51.2771 86.1258 57.1678 86.1258 68.3967Z" fill="#263238"/>
<path opacity="0.2" d="M82.1283 35.3958C81.7452 36.4659 80.739 38.28 78.2114 39.0032C74.5249 40.058 74.4763 43.1824 74.4763 43.1824L74.5221 43.2407C78.0393 42.079 80.968 39.1725 82.1283 35.3958Z" fill="black"/>
<path d="M78.2128 8.45739C81.3247 4.53352 76.5375 4.34615 76.5375 4.34615C77.7811 -0.338349 72.1819 2.18365 72.1819 2.18365C68.8202 -2.44949 66.9242 3.18856 66.9242 3.18856C63.4375 -0.736704 62.7963 5.67862 62.7963 5.67862C59.2999 0.699863 57.5191 7.88138 57.5191 7.88138C54.2989 2.71108 52.328 9.44706 52.328 9.44706C45.6795 7.06664 48.8399 13.9761 48.8399 13.9761C43.1644 14.1357 47.717 18.526 47.717 18.526C40.9186 18.5426 46.9134 22.4359 46.9134 22.4359C41.5141 25.9781 48.2917 26.9317 48.2917 26.9317C43.8862 33.8203 51.4508 31.265 51.4508 31.265C48.3861 38.0829 55.1817 35.0792 55.1817 35.0792C54.7403 41.6584 58.5407 39.8678 60.3673 38.6492C60.7198 39.9747 61.3777 41.378 62.5992 41.5376C64.9699 41.8471 65.4307 37.3722 65.4307 37.3722C65.4307 37.3722 67.6307 39.0836 69.4753 38.1564C71.32 37.2292 70.6246 34.8822 70.6246 34.8822C70.6246 34.8822 72.0362 35.9356 73.3298 34.9307C74.121 34.3159 74.1251 29.8978 73.1161 28.3447L76.729 26.9303C76.729 26.9303 79.4106 26.5528 78.2128 23.0175C77.0163 19.4837 78.031 16.6924 78.031 16.6924C82.1089 14.7811 78.7638 12.4826 78.7638 12.4826C83.4789 9.42762 78.2128 8.45739 78.2128 8.45739Z" fill="#263238"/>
<path d="M70.8939 25.3896C71.4616 27.5798 72.9009 29.462 74.4055 30.5821C76.6707 32.2671 78.3613 30.6085 78.2003 28.0462C78.056 25.7394 76.7027 22.0834 74.2043 21.3991C71.7447 20.7245 70.2457 22.8856 70.8939 25.3896Z" fill="#B55B52"/>
</svg>
