<svg width="453" height="453" viewBox="0 0 453 453" fill="none" xmlns="http://www.w3.org/2000/svg">
<path d="M71.2848 187.326C68.5832 189.063 65.5802 190.389 62.3187 191.209C53.8861 193.34 45.4249 191.703 38.5884 187.312C31.9015 183.035 26.7579 176.131 24.7383 167.604C20.6716 150.339 30.8785 132.933 47.5677 128.726C64.2426 124.505 81.0682 135.078 85.1481 152.344C88.4239 166.235 82.4333 180.211 71.2848 187.326Z" fill="#EBEBEB"/>
<path d="M64.3966 156.292C64.3966 161.697 60.1616 166.078 54.9366 166.078C49.7116 166.078 45.4766 161.696 45.4766 156.292C45.4766 150.886 49.7127 146.505 54.9366 146.505C60.1616 146.504 64.3966 150.886 64.3966 156.292Z" fill="white"/>
<path d="M71.2848 183.288V187.326C68.5832 189.063 65.5802 190.389 62.3187 191.209C53.8861 193.34 45.4249 191.703 38.5884 187.312V183.288C38.5884 173.97 45.9023 166.375 54.9355 166.375C63.9709 166.377 71.2848 173.972 71.2848 183.288Z" fill="white"/>
<path d="M29.7597 53.7976C30.8751 53.0818 32.271 53.1216 33.3941 53.8237C33.6988 54.0138 34.0101 54.197 34.3258 54.3734C34.6459 54.5509 34.9671 54.7182 35.2905 54.8764C36.473 55.4545 37.2749 56.63 37.3156 57.9831L37.4542 62.6068L52.0116 62.1391L51.8741 57.5177C51.8334 56.1612 52.5517 54.9196 53.7023 54.2687C54.3359 53.9113 54.9519 53.5176 55.5481 53.0886C56.6206 52.3182 58.011 52.21 59.1627 52.8496L63.093 55.03L69.979 41.7473L66.0487 39.5669C64.897 38.9284 64.215 37.671 64.2414 36.319C64.2568 35.5691 64.2326 34.8203 64.1699 34.076C64.0566 32.7241 64.6594 31.4188 65.7737 30.703L69.5709 28.2642L61.894 15.4595L58.0759 17.9062C56.966 18.6174 55.5778 18.5764 54.4591 17.8789C54.1544 17.6877 53.8431 17.5056 53.5274 17.3303C53.2106 17.1551 52.8916 16.9878 52.5693 16.8308C51.3824 16.2515 50.5783 15.0703 50.5398 13.7138L50.4056 9.08667L35.8482 9.55439L35.989 14.1656C36.0308 15.5209 35.3147 16.7636 34.1641 17.4146C33.5283 17.7742 32.9101 18.1702 32.3128 18.6015C31.2392 19.3742 29.8478 19.4823 28.695 18.8427L24.7669 16.6635L17.8809 29.9462L21.8101 32.1255C22.9629 32.765 23.646 34.0237 23.6174 35.3767C23.602 36.1301 23.6251 36.8823 23.6867 37.6288C23.7989 38.9808 23.1939 40.2849 22.0796 40.9985L18.289 43.4281L25.9659 56.2317L29.7597 53.7976ZM33.4084 30.0156C36.5225 24.0093 43.7627 21.7481 49.5685 24.9697C55.3754 28.1914 57.5501 35.676 54.436 41.6824C51.3219 47.6888 44.0971 49.9454 38.2913 46.7237C32.4856 43.5021 30.2955 36.0231 33.4084 30.0156Z" fill="#EBEBEB"/>
<path d="M431.144 324.823C431.604 323.999 432.478 323.545 433.396 323.594C433.646 323.607 433.895 323.613 434.147 323.613C434.401 323.613 434.654 323.606 434.904 323.594C435.819 323.545 436.69 323.996 437.148 324.818L438.713 327.625L447.551 322.35L445.986 319.543C445.528 318.719 445.573 317.707 446.076 316.911C446.352 316.473 446.607 316.019 446.838 315.551C447.254 314.708 448.078 314.165 448.993 314.165H452.117V303.606H448.993C448.078 303.606 447.254 303.063 446.838 302.22C446.607 301.751 446.353 301.297 446.076 300.859C445.573 300.063 445.528 299.05 445.986 298.226L447.551 295.42L438.713 290.144L437.139 292.963C436.682 293.782 435.811 294.233 434.897 294.184C434.649 294.172 434.398 294.165 434.146 294.165C433.894 294.165 433.645 294.172 433.395 294.184C432.476 294.233 431.603 293.779 431.144 292.955L429.58 290.144L420.743 295.42L422.306 298.218C422.766 299.041 422.722 300.054 422.22 300.849C421.943 301.29 421.688 301.746 421.457 302.216C421.041 303.061 420.217 303.605 419.3 303.605H416.178V314.164H419.3C420.217 314.164 421.041 314.707 421.457 315.552C421.688 316.024 421.943 316.48 422.22 316.919C422.722 317.716 422.766 318.727 422.306 319.55L420.743 322.349L429.58 327.624L431.144 324.823ZM425.786 308.889C425.786 304.114 429.533 300.238 434.148 300.238C438.764 300.238 442.502 304.114 442.502 308.889C442.502 313.664 438.764 317.531 434.148 317.531C429.532 317.533 425.786 313.664 425.786 308.889Z" fill="#EBEBEB"/>
<path d="M67.0728 80.6213C67.8692 81.097 68.307 82.0017 68.2597 82.9508C68.2476 83.2091 68.241 83.4675 68.241 83.7281C68.241 83.9909 68.2476 84.2527 68.2597 84.511C68.3059 85.4578 67.8703 86.3591 67.0761 86.8325L64.3635 88.4519L69.4631 97.5946L72.1757 95.9764C72.9721 95.5018 73.95 95.5485 74.72 96.0685C75.1435 96.3542 75.5824 96.6182 76.0356 96.856C76.8507 97.2862 77.3754 98.1385 77.3754 99.0854V102.317H87.5823V99.0854C87.5823 98.1385 88.107 97.2862 88.9221 96.856C89.3753 96.617 89.8142 96.3542 90.2377 96.0685C91.0066 95.5485 91.9856 95.5018 92.7809 95.9764L95.4935 97.5946L100.593 88.4519L97.8684 86.8234C97.0764 86.35 96.6408 85.4499 96.6881 84.5042C96.7013 84.247 96.7068 83.9875 96.7068 83.7269C96.7068 83.4663 96.7002 83.208 96.6881 82.9497C96.6408 81.9995 97.0797 81.0959 97.8761 80.6213L100.593 79.0031L95.4935 69.8604L92.7886 71.4775C91.9933 71.9532 91.0143 71.9077 90.2454 71.3887C89.8197 71.102 89.3786 70.8379 88.9243 70.599C88.1081 70.1699 87.5823 69.3164 87.5823 68.3685V65.1377H77.3754V68.3685C77.3754 69.3164 76.8507 70.1699 76.0334 70.599C75.578 70.8379 75.1369 71.102 74.7123 71.3887C73.9423 71.9077 72.9644 71.9532 72.1691 71.4775L69.4642 69.8604L64.3646 79.0031L67.0728 80.6213ZM82.4728 75.0781C87.0884 75.0781 90.835 78.9542 90.835 83.7292C90.835 88.5043 87.0884 92.3712 82.4728 92.3712C77.8572 92.3712 74.1183 88.5043 74.1183 83.7292C74.1194 78.9542 77.8572 75.0781 82.4728 75.0781Z" fill="#EBEBEB"/>
<path d="M450.691 0.0532227H389.699V76.5917H450.691V0.0532227Z" fill="#EBEBEB"/>
<path d="M443.722 7.03943H396.668V69.6067H443.722V7.03943Z" fill="white"/>
<path d="M398.504 7.03943H396.668V69.6067H398.504V7.03943Z" fill="#C7C7C7"/>
<path d="M452.527 0.0532227H450.691V76.5917H452.527V0.0532227Z" fill="#C7C7C7"/>
<path d="M421.245 55.7029H432.34V21.5071H421.245V55.7029Z" fill="#EBEBEB"/>
<path d="M407.597 32.4183L437.181 32.4183V15.6647L407.597 15.6647V32.4183Z" stroke="#EBEBEB" stroke-miterlimit="10"/>
<path d="M450.691 188.673H389.699V265.212H450.691V188.673Z" fill="#EBEBEB"/>
<path d="M443.722 195.658H396.669V258.226H443.722V195.658Z" fill="white"/>
<path d="M398.505 195.658H396.669V258.226H398.505V195.658Z" fill="#C7C7C7"/>
<path d="M452.527 188.673H450.691V265.212H452.527V188.673Z" fill="#C7C7C7"/>
<path d="M423.532 210.126H412.438V244.321H423.532V210.126Z" fill="#EBEBEB"/>
<path d="M437.18 204.284H407.597V221.038H437.18V204.284Z" stroke="#EBEBEB" stroke-miterlimit="10"/>
<path d="M450.691 94.7086H389.699V171.246H450.691V94.7086Z" fill="#EBEBEB"/>
<path d="M443.722 101.694H396.668V164.261H443.722V101.694Z" fill="white"/>
<path d="M398.504 101.694H396.668V164.261H398.504V101.694Z" fill="#C7C7C7"/>
<path d="M452.527 94.7086H450.691V171.246H452.527V94.7086Z" fill="#C7C7C7"/>
<path d="M425.144 117.867H415.639V142.73H425.144V117.867Z" fill="#EBEBEB"/>
<path d="M435.152 132.977H409.618V150.117H435.152V132.977Z" stroke="#DBDBDB" stroke-miterlimit="10"/>
<path d="M38.8854 288.122V452.509H134.941V288.122H38.8854ZM47.6073 349.048H126.22V391.843H47.6073V349.048ZM47.6073 296.064H126.22V338.859H47.6073V296.064Z" fill="#EBEBEB"/>
<path d="M0.46986 452.505H38.8829L38.8829 288.122H0.46986L0.46986 452.505Z" fill="#DBDBDB"/>
<path d="M107.537 338.852H126.219V296.061H107.537V338.852Z" fill="#DBDBDB"/>
<path d="M47.6058 442.19H125.728V401.391H47.6058V442.19Z" stroke="#DBDBDB" stroke-width="0.75" stroke-miterlimit="10"/>
<path d="M82.184 420.991H97.7017V412.868H82.184V420.991Z" fill="#DBDBDB"/>
<path d="M77.5967 420.379H93.1144V413.482H77.5967V420.379Z" stroke="#DBDBDB" stroke-width="0.75" stroke-miterlimit="10"/>
<path d="M107.537 391.844H126.219V349.053H107.537V391.844Z" fill="#DBDBDB"/>
</svg>
