<svg width="238" height="366" viewBox="0 0 238 366" fill="none" xmlns="http://www.w3.org/2000/svg">
<path d="M216.469 0.407837H171.274L139.307 365.797H184.502C197.354 365.797 208.725 355.342 209.849 342.489L237.738 23.7165C238.863 10.8636 229.321 0.407837 216.469 0.407837Z" fill="#7539FF"/>
<path d="M207.247 0.407837H54.2905C41.4376 0.407837 30.0671 10.8636 28.9428 23.7165L1.05374 342.489C-0.0705417 355.342 9.47058 365.797 22.3235 365.797H175.28C188.133 365.797 199.503 355.342 200.627 342.489L228.516 23.7165C229.641 10.8636 220.1 0.407837 207.247 0.407837Z" fill="#7539FF"/>
<path opacity="0.3" d="M207.247 0.407837H54.2905C41.4376 0.407837 30.0671 10.8636 28.9428 23.7165L1.05374 342.489C-0.0705417 355.342 9.47058 365.797 22.3235 365.797H175.28C188.133 365.797 199.503 355.342 200.627 342.489L228.516 23.7165C229.641 10.8636 220.1 0.407837 207.247 0.407837Z" fill="white"/>
<path opacity="0.4" d="M206.593 7.87524H166.266C163.887 7.87524 161.654 9.43674 160.772 11.7158C157.512 20.141 149.256 25.9109 140.462 25.9109H116.614C107.82 25.9109 100.572 20.1396 98.7856 11.7158C98.3026 9.43674 96.3427 7.87662 93.9637 7.87662H53.6367C44.8882 7.87662 37.1765 14.9679 36.4103 23.7165L8.52119 342.489C7.7564 351.237 14.2273 358.329 22.9758 358.329H175.932C184.681 358.329 192.392 351.237 193.159 342.489L221.048 23.7165C221.812 14.9679 215.341 7.87524 206.593 7.87524Z" fill="#536EFE"/>
<path d="M168.49 181.03H61.4415C58.2671 181.03 55.92 178.456 56.1976 175.283L56.7334 169.158C57.011 165.984 59.8092 163.412 62.9835 163.412H170.032C173.206 163.412 175.553 165.985 175.275 169.158L174.74 175.283C174.462 178.456 171.664 181.03 168.49 181.03Z" fill="white"/>
<path d="M166.177 207.457H59.129C55.9547 207.457 53.6076 204.884 53.8852 201.711L54.4209 195.586C54.6985 192.411 57.4967 189.839 60.6711 189.839H167.719C170.894 189.839 173.241 192.413 172.963 195.586L172.427 201.711C172.15 204.884 169.352 207.457 166.177 207.457Z" fill="white"/>
<path opacity="0.1" d="M135.965 13.8464C135.656 17.3664 132.554 20.2187 129.034 20.2187C125.514 20.2187 122.912 17.3664 123.22 13.8464C123.528 10.3265 126.63 7.47412 130.15 7.47412C133.669 7.47412 136.273 10.3265 135.965 13.8464Z" fill="black"/>
<path opacity="0.1" d="M133.073 13.8465C132.905 15.7688 131.211 17.3276 129.287 17.3276C127.365 17.3276 125.942 15.7688 126.11 13.8465C126.278 11.9241 127.972 10.3654 129.896 10.3654C131.82 10.3654 133.241 11.9241 133.073 13.8465Z" fill="black"/>
<g opacity="0.8">
<path d="M187.763 24.4758C186.732 24.4758 185.969 23.6402 186.059 22.6089L186.357 19.1958C186.448 18.1646 187.357 17.329 188.388 17.329C189.419 17.329 190.183 18.1646 190.092 19.1958L189.794 22.6089C189.704 23.6402 188.795 24.4758 187.763 24.4758Z" fill="white"/>
<path d="M202.701 24.4758C201.67 24.4758 200.906 23.6402 200.997 22.609L201.698 14.5988C201.788 13.5675 202.697 12.7319 203.728 12.7319C204.759 12.7319 205.523 13.5675 205.433 14.5988L204.732 22.609C204.641 23.6402 203.732 24.4758 202.701 24.4758Z" fill="white"/>
<path d="M195.232 24.4759C194.201 24.4759 193.438 23.6403 193.528 22.609L194.027 16.8974C194.118 15.8661 195.027 15.0305 196.058 15.0305C197.089 15.0305 197.853 15.8661 197.763 16.8974L197.263 22.609C197.173 23.6403 196.263 24.4759 195.232 24.4759Z" fill="white"/>
</g>
<g opacity="0.8">
<path d="M59.8813 24.4758H50.5054C49.9211 24.4758 49.4894 24.0024 49.5407 23.4181L49.9807 18.3838C50.0321 17.7995 50.547 17.3262 51.13 17.3262H60.5059C61.0903 17.3262 61.522 17.7995 61.4706 18.3838L61.0306 23.4181C60.9792 24.0024 60.4657 24.4758 59.8813 24.4758Z" fill="white"/>
<path d="M64.2286 23.1099C63.6442 23.1099 63.2126 22.6366 63.2639 22.0522L63.4652 19.7495C63.5165 19.1652 64.0315 18.6919 64.6144 18.6919C65.1988 18.6919 65.6305 19.1652 65.5791 19.7495L65.3778 22.0522C65.3279 22.6366 64.8129 23.1099 64.2286 23.1099Z" fill="white"/>
</g>
<path d="M150.869 140.768C169.546 122.889 171.407 94.5225 155.026 77.4088C138.644 60.295 110.223 60.9151 91.5453 78.7938C72.8677 96.6725 71.0065 125.039 87.3882 142.153C103.77 159.267 132.191 158.647 150.869 140.768Z" fill="white"/>
<path d="M121.35 108.05C109.573 108.05 99.6323 112.531 98.7815 122.267L97.8362 133.073H140.488L141.433 122.267C142.284 112.531 133.129 108.05 121.35 108.05Z" fill="#7539FF"/>
<path d="M121.74 103.6C127.206 103.6 129.727 99.1696 130.204 93.7037C130.683 88.2378 128.937 83.8073 123.471 83.8073C118.005 83.8073 115.485 88.2378 115.006 93.7037C114.528 99.1696 116.274 103.6 121.74 103.6Z" fill="#7539FF"/>
<path d="M163.604 171.905C160.695 171.905 158.239 173.011 158.03 175.417L157.796 178.086H168.331L168.565 175.417C168.774 173.011 166.513 171.905 163.604 171.905Z" fill="#7539FF"/>
<path d="M163.7 170.806C165.05 170.806 165.672 169.71 165.79 168.361C165.908 167.011 165.478 165.917 164.127 165.917C162.777 165.917 162.155 167.012 162.037 168.361C161.919 169.712 162.35 170.806 163.7 170.806Z" fill="#7539FF"/>
<path d="M131.168 233.885H89.5151C84.6502 233.885 81.0511 229.941 81.4772 225.075C81.9033 220.21 86.1923 216.265 91.0572 216.265H132.71C137.575 216.265 141.174 220.21 140.748 225.075C140.321 229.941 136.033 233.885 131.168 233.885Z" fill="#7539FF"/>
<path d="M126.143 332.127H81.5647C76.4235 332.127 72.6204 327.959 73.0701 322.818L75.9142 290.304C76.3639 285.163 80.8957 280.995 86.0368 280.995H130.615C135.756 280.995 139.56 285.163 139.11 290.304L136.266 322.818C135.816 327.959 131.284 332.127 126.143 332.127Z" fill="#7539FF"/>
<g opacity="0.6">
<path d="M112.395 298.517C112.666 295.423 110.377 292.915 107.283 292.915C104.189 292.915 101.462 295.423 101.191 298.517C101.03 300.359 101.789 301.98 103.073 303L102.093 314.196C101.932 316.033 103.291 317.523 105.129 317.523C106.966 317.523 108.586 316.033 108.747 314.196L109.727 303C111.192 301.98 112.234 300.36 112.395 298.517Z" fill="white"/>
</g>
<path d="M131.011 287.763H125.266L126.673 271.676C127.519 262.008 120.343 254.144 110.675 254.144C101.008 254.144 92.4549 262.008 91.6096 271.676L90.2022 287.763H84.4573L85.8647 271.676C86.9876 258.841 98.3428 248.399 111.178 248.399C124.013 248.399 133.541 258.841 132.418 271.676L131.011 287.763Z" fill="#7539FF"/>
<path d="M164.309 196.542L164.444 194.998C164.582 193.42 163.411 192.138 161.833 192.138C160.255 192.138 158.86 193.422 158.722 194.998L158.588 196.542C157.957 196.542 157.402 197.053 157.348 197.683L156.989 201.786C156.933 202.416 157.399 202.927 158.03 202.927H163.748C164.378 202.927 164.934 202.416 164.989 201.786L165.349 197.683C165.404 197.053 164.939 196.542 164.309 196.542ZM161.772 192.843C162.96 192.843 163.841 193.809 163.738 194.997L163.604 196.541H159.294L159.429 194.997C159.533 193.809 160.584 192.843 161.772 192.843Z" fill="#7539FF"/>
<path d="M78.2196 198.185L76.2237 197.773C75.9877 197.725 75.8656 197.476 75.9641 197.243L76.7956 195.278C76.9746 194.856 76.461 194.543 76.1376 194.878L74.6289 196.432C74.4498 196.617 74.1625 196.617 74.0168 196.432L72.7801 194.878C72.515 194.545 71.9473 194.856 72.0514 195.278L72.5385 197.243C72.5968 197.476 72.4317 197.725 72.186 197.773L70.1179 198.185C69.6737 198.274 69.6196 198.897 70.0485 198.986L72.0444 199.398C72.2804 199.447 72.4025 199.696 72.304 199.929L71.4726 201.894C71.2935 202.316 71.8071 202.628 72.1305 202.294L73.6392 200.739C73.8183 200.555 74.1056 200.555 74.2514 200.739L75.488 202.294C75.7532 202.628 76.3208 202.316 76.2167 201.894L75.7296 199.929C75.6713 199.696 75.8364 199.447 76.0821 199.398L78.1502 198.986C78.5944 198.897 78.6485 198.273 78.2196 198.185Z" fill="#263238"/>
<path d="M91.3543 198.185L89.3583 197.773C89.1224 197.725 89.0002 197.476 89.0988 197.243L89.9302 195.278C90.1092 194.856 89.5957 194.543 89.2723 194.878L87.7635 196.432C87.5844 196.617 87.2985 196.617 87.1514 196.432L85.9147 194.878C85.6496 194.545 85.0819 194.856 85.186 195.278L85.6732 197.243C85.7315 197.476 85.5649 197.725 85.3206 197.773L83.2525 198.185C82.8083 198.274 82.7542 198.897 83.1817 198.986L85.1776 199.398C85.4136 199.447 85.5358 199.696 85.4372 199.929L84.6058 201.894C84.4267 202.316 84.9403 202.628 85.2637 202.294L86.7725 200.739C86.9515 200.555 87.2375 200.555 87.3846 200.739L88.6213 202.294C88.8864 202.628 89.4541 202.316 89.35 201.894L88.8628 199.929C88.8045 199.696 88.9711 199.447 89.2154 199.398L91.2835 198.986C91.729 198.897 91.7831 198.273 91.3543 198.185Z" fill="#263238"/>
<path d="M104.489 198.185L102.493 197.773C102.257 197.725 102.135 197.476 102.233 197.243L103.065 195.278C103.244 194.856 102.73 194.543 102.407 194.878L100.898 196.432C100.719 196.617 100.432 196.617 100.286 196.432L99.0493 194.878C98.7842 194.545 98.2166 194.856 98.3207 195.278L98.8078 197.243C98.8661 197.476 98.7009 197.725 98.4553 197.773L96.3872 198.185C95.943 198.274 95.8889 198.897 96.3164 198.986L98.3123 199.398C98.5483 199.447 98.6704 199.696 98.5719 199.929L97.7405 201.894C97.5614 202.316 98.075 202.628 98.3984 202.294L99.9071 200.739C100.086 200.555 100.373 200.555 100.519 200.739L101.756 202.294C102.021 202.628 102.589 202.316 102.485 201.894L101.997 199.929C101.939 199.696 102.104 199.447 102.35 199.398L104.418 198.986C104.864 198.897 104.918 198.273 104.489 198.185Z" fill="#263238"/>
<path d="M117.625 198.185L115.629 197.773C115.393 197.725 115.271 197.476 115.369 197.243L116.201 195.278C116.38 194.856 115.866 194.543 115.543 194.878L114.034 196.432C113.855 196.617 113.568 196.617 113.422 196.432L112.185 194.878C111.92 194.545 111.353 194.856 111.457 195.278L111.944 197.243C112.002 197.476 111.837 197.725 111.591 197.773L109.523 198.185C109.079 198.274 109.025 198.897 109.454 198.986L111.45 199.398C111.686 199.447 111.808 199.696 111.709 199.929L110.878 201.894C110.699 202.316 111.212 202.628 111.536 202.294L113.045 200.739C113.224 200.555 113.511 200.555 113.657 200.739L114.893 202.294C115.158 202.628 115.726 202.316 115.622 201.894L115.135 199.929C115.077 199.696 115.242 199.447 115.487 199.398L117.556 198.986C117.998 198.897 118.054 198.273 117.625 198.185Z" fill="#263238"/>
<path d="M130.76 198.185L128.764 197.773C128.528 197.725 128.406 197.476 128.504 197.243L129.335 195.278C129.515 194.856 129.001 194.543 128.678 194.878L127.169 196.432C126.99 196.617 126.702 196.617 126.557 196.432L125.32 194.878C125.055 194.545 124.487 194.856 124.591 195.278L125.078 197.243C125.137 197.476 124.972 197.725 124.726 197.773L122.658 198.185C122.214 198.274 122.16 198.897 122.587 198.986L124.583 199.398C124.819 199.447 124.941 199.696 124.843 199.929L124.011 201.894C123.833 202.316 124.346 202.628 124.669 202.294L126.178 200.739C126.357 200.555 126.643 200.555 126.79 200.739L128.027 202.294C128.292 202.628 128.859 202.316 128.755 201.894L128.268 199.929C128.21 199.696 128.376 199.447 128.621 199.398L130.689 198.986C131.133 198.897 131.188 198.273 130.76 198.185Z" fill="#263238"/>
<path d="M143.894 198.185L141.898 197.773C141.662 197.725 141.54 197.476 141.639 197.243L142.47 195.278C142.648 194.856 142.136 194.543 141.812 194.878L140.303 196.432C140.124 196.617 139.839 196.617 139.691 196.432L138.455 194.878C138.19 194.545 137.622 194.856 137.726 195.278L138.213 197.243C138.271 197.476 138.105 197.725 137.861 197.773L135.792 198.185C135.348 198.274 135.294 198.897 135.722 198.986L137.718 199.398C137.954 199.447 138.076 199.696 137.977 199.929L137.146 201.894C136.967 202.316 137.48 202.628 137.804 202.294L139.312 200.739C139.492 200.555 139.779 200.555 139.925 200.739L141.161 202.294C141.426 202.628 141.994 202.316 141.89 201.894L141.403 199.929C141.344 199.696 141.51 199.447 141.755 199.398L143.823 198.986C144.268 198.897 144.323 198.273 143.894 198.185Z" fill="#263238"/>
<path d="M112.234 169.445H87.5719C86.0396 169.445 84.6891 170.688 84.5545 172.22C84.4198 173.752 85.5538 174.995 87.0861 174.995H111.748C113.28 174.995 114.631 173.752 114.766 172.22C114.9 170.688 113.766 169.445 112.234 169.445Z" fill="#263238"/>
<path d="M137.269 169.445H122.959C121.427 169.445 120.076 170.688 119.942 172.22C119.807 173.752 120.941 174.995 122.473 174.995H136.784C138.316 174.995 139.666 173.752 139.801 172.22C139.936 170.688 138.802 169.445 137.269 169.445Z" fill="#263238"/>
<path d="M156.161 295.27C146.863 298.983 138.711 304.399 133.132 310.558C129.86 307.774 125.209 305.84 119.633 304.956L118.98 304.852L118.694 308.126L119.059 308.264C124.562 310.343 129.041 314.032 132.013 318.93L132.479 319.701L132.996 318.875C138.714 309.72 147.053 302.049 156.475 297.277L156.794 297.115L156.984 294.939L156.161 295.27Z" fill="#263238"/>
</svg>
