<svg width="199" height="266" viewBox="0 0 199 266" fill="none" xmlns="http://www.w3.org/2000/svg">
<path opacity="0.2" d="M128.135 18.9871C126.402 22.0365 125.258 25.4385 124.941 29.0431L104.271 265.31H168.226L181.076 216.046L176.847 166.781L189.697 117.517L185.468 68.2527L198.318 18.9885H128.135V18.9871Z" fill="black"/>
<path d="M179.916 54.3727L192.765 5.10706H31.0294L18.1793 54.3727L22.4099 103.637L9.55983 152.901L13.7891 202.167L0.938965 251.431H162.674L175.524 202.167L171.295 152.901L184.144 103.637L179.916 54.3727Z" fill="#407BFF"/>
<path opacity="0.7" d="M179.916 54.3727L192.765 5.10706H31.0294L18.1793 54.3727L22.4099 103.637L9.55983 152.901L13.7891 202.167L0.938965 251.431H162.674L175.524 202.167L171.295 152.901L184.144 103.637L179.916 54.3727Z" fill="white"/>
<path opacity="0.5" d="M179.915 54.3727H18.1793L31.0294 5.10706H192.765L179.915 54.3727Z" fill="white"/>
<path opacity="0.5" d="M171.295 152.901H9.55983L22.4099 103.637H184.145L171.295 152.901Z" fill="white"/>
<path opacity="0.5" d="M162.674 251.431H0.938965L13.7891 202.167H175.524L162.674 251.431Z" fill="white"/>
<path opacity="0.2" d="M158.273 74.9596C156.884 75.394 155.104 75.655 153.165 75.655C150.31 75.655 147.8 75.0901 146.374 74.2392C145.982 74.0047 145.552 73.8881 145.122 73.8881C144.722 73.8881 144.324 74.0005 143.954 74.2018C143.927 74.217 143.896 74.2226 143.87 74.2392C143.854 74.2489 143.835 74.2559 143.82 74.2656C143.291 74.5737 142.625 74.8444 141.847 75.0623C140.513 75.4357 138.865 75.6564 137.08 75.6564C136.595 75.6564 136.119 75.6397 135.658 75.6092C134.274 75.5148 133.013 75.2872 131.972 74.9624C131.79 74.9055 131.607 74.8722 131.428 74.8597C130.169 74.7764 129.037 75.7424 129.037 77.0777V78.5823H66.1736C61.3086 78.5823 57.3639 82.5256 57.3639 87.3919V96.2696C57.3639 101.135 61.3086 105.079 66.1736 105.079H137.693C137.851 105.079 138.004 105.064 138.161 105.056C138.933 105.694 139.736 106.331 140.587 106.977C141.606 107.748 142.679 108.531 143.803 109.347C144.586 109.915 145.66 109.915 146.443 109.347C155.436 102.825 161.21 98.3266 161.21 85.9665V77.0791C161.209 75.5509 159.73 74.5043 158.273 74.9596Z" fill="black"/>
<path d="M136.326 100.186H64.8064C59.9414 100.186 55.9967 96.2432 55.9967 91.3769V82.4992C55.9967 77.6343 59.94 73.6896 64.8064 73.6896H136.326C141.191 73.6896 145.135 77.6329 145.135 82.4992V91.3769C145.135 96.2418 141.191 100.186 136.326 100.186Z" fill="#7539FF"/>
<path d="M151.799 70.7635C148.944 70.7635 146.436 70.1986 145.008 69.3478C144.224 68.88 143.288 68.88 142.504 69.3478C141.077 70.1986 138.569 70.7635 135.712 70.7635C133.772 70.7635 131.994 70.5026 130.605 70.0695C129.149 69.6143 127.669 70.6594 127.669 72.1862V81.0736C127.669 93.4337 133.443 97.9322 142.436 104.454C143.219 105.022 144.293 105.022 145.076 104.454C154.069 97.9322 159.843 93.4337 159.843 81.0736V72.1862C159.843 70.6594 158.365 69.6143 156.907 70.0695C155.518 70.5026 153.74 70.7635 151.799 70.7635Z" fill="#7539FF"/>
<path opacity="0.2" d="M142.504 69.3479C141.077 70.1987 138.569 70.7636 135.712 70.7636C133.772 70.7636 131.994 70.5027 130.605 70.0696C129.149 69.6144 127.669 70.6595 127.669 72.1849V81.0737C127.669 93.4338 133.443 97.9323 142.436 104.455C142.827 104.738 143.291 104.881 143.756 104.881V68.9967C143.326 68.9967 142.895 69.1133 142.504 69.3479Z" fill="white"/>
<path d="M156.646 78.6475C150.835 81.0515 145.861 84.559 142.598 88.5481C140.322 86.7451 137.2 85.4931 133.539 84.9198L133.11 84.8532V86.9741L133.354 87.0629C137.037 88.4093 140.146 90.7994 142.348 93.971L142.694 94.4693L142.981 93.9349C146.167 88.0054 151.133 83.0377 156.964 79.948L157.163 79.8425V78.4337L156.646 78.6475Z" fill="#263238"/>
<path d="M189.91 18.9607H183.773C180.37 18.9607 177.853 16.2028 178.15 12.7994L178.688 6.66303C178.986 3.25966 181.986 0.501709 185.389 0.501709H191.525C194.929 0.501709 197.445 3.26105 197.148 6.66303L196.611 12.7994C196.312 16.2028 193.313 18.9607 189.91 18.9607Z" fill="#7539FF"/>
<path d="M192.459 6.65059L191.128 5.19043L187.776 8.27179L184.964 5.19043L183.376 6.65059L186.188 9.73195L182.838 12.8133L184.17 14.2735L187.521 11.1921L190.333 14.2735L191.921 12.8133L189.109 9.73195L192.459 6.65059Z" fill="white"/>
</svg>
